<mxfile host="65bd71144e">
    <diagram id="FZ9DD5X4XMx8buouNPko" name="Page-1">
        <mxGraphModel dx="1334" dy="644" grid="1" gridSize="10" guides="1" tooltips="1" connect="1" arrows="1" fold="1" page="1" pageScale="1" pageWidth="850" pageHeight="1100" math="0" shadow="0">
            <root>
                <mxCell id="0"/>
                <mxCell id="1" parent="0"/>
                <mxCell id="28" style="edgeStyle=elbowEdgeStyle;shape=connector;rounded=1;html=1;exitX=0.5;exitY=1;exitDx=0;exitDy=0;entryX=0;entryY=0;entryDx=0;entryDy=0;strokeColor=default;align=center;verticalAlign=middle;fontFamily=Helvetica;fontSize=11;fontColor=default;labelBackgroundColor=default;endArrow=classic;" edge="1" parent="1" source="38" target="22">
                    <mxGeometry relative="1" as="geometry">
                        <Array as="points">
                            <mxPoint x="190" y="560"/>
                        </Array>
                    </mxGeometry>
                </mxCell>
                <mxCell id="65" value="User selects course" style="edgeLabel;html=1;align=center;verticalAlign=middle;resizable=0;points=[];fontFamily=Helvetica;fontSize=11;fontColor=default;labelBackgroundColor=default;" vertex="1" connectable="0" parent="28">
                    <mxGeometry x="0.4667" y="3" relative="1" as="geometry">
                        <mxPoint x="7" y="-7" as="offset"/>
                    </mxGeometry>
                </mxCell>
                <mxCell id="21" value="/" style="swimlane;whiteSpace=wrap;html=1;fontFamily=Helvetica;fontSize=11;fontColor=default;labelBackgroundColor=default;" vertex="1" parent="1">
                    <mxGeometry x="40" y="410" width="195" height="200" as="geometry">
                        <mxRectangle x="40" y="410" width="130" height="30" as="alternateBounds"/>
                    </mxGeometry>
                </mxCell>
                <mxCell id="8" value="Select a Course" style="rounded=0;whiteSpace=wrap;html=1;fontFamily=Helvetica;fontSize=11;fontColor=default;labelBackgroundColor=default;" vertex="1" parent="21">
                    <mxGeometry x="37.5" y="30" width="120" height="30" as="geometry"/>
                </mxCell>
                <mxCell id="34" value="CS09A" style="rounded=0;whiteSpace=wrap;html=1;fontFamily=Helvetica;fontSize=11;fontColor=default;labelBackgroundColor=default;" vertex="1" parent="21">
                    <mxGeometry x="20" y="80" width="60" height="30" as="geometry"/>
                </mxCell>
                <mxCell id="38" value="CS61" style="rounded=0;whiteSpace=wrap;html=1;fontFamily=Helvetica;fontSize=11;fontColor=default;labelBackgroundColor=default;" vertex="1" parent="21">
                    <mxGeometry x="90" y="80" width="60" height="30" as="geometry"/>
                </mxCell>
                <mxCell id="29" style="edgeStyle=elbowEdgeStyle;shape=connector;rounded=1;html=1;entryX=0.5;entryY=0;entryDx=0;entryDy=0;strokeColor=default;align=center;verticalAlign=middle;fontFamily=Helvetica;fontSize=11;fontColor=default;labelBackgroundColor=default;endArrow=classic;elbow=vertical;" edge="1" parent="1" source="39" target="24">
                    <mxGeometry relative="1" as="geometry">
                        <Array as="points">
                            <mxPoint x="245" y="810"/>
                        </Array>
                    </mxGeometry>
                </mxCell>
                <mxCell id="33" value="User submits first message" style="edgeLabel;html=1;align=center;verticalAlign=middle;resizable=0;points=[];fontFamily=Helvetica;fontSize=11;fontColor=default;labelBackgroundColor=default;" vertex="1" connectable="0" parent="29">
                    <mxGeometry x="0.2003" relative="1" as="geometry">
                        <mxPoint x="34" y="-10" as="offset"/>
                    </mxGeometry>
                </mxCell>
                <mxCell id="22" value="/course/&amp;lt;course_id&amp;gt;/chat" style="swimlane;whiteSpace=wrap;html=1;fontFamily=Helvetica;fontSize=11;fontColor=default;labelBackgroundColor=default;" vertex="1" parent="1">
                    <mxGeometry x="342.5" y="590" width="195" height="202.5" as="geometry">
                        <mxRectangle x="322.5" y="20" width="230" height="30" as="alternateBounds"/>
                    </mxGeometry>
                </mxCell>
                <mxCell id="39" value="&lt;i&gt;Enter question here&lt;/i&gt;" style="rounded=1;whiteSpace=wrap;html=1;fontFamily=Helvetica;fontSize=11;fontColor=default;labelBackgroundColor=default;" vertex="1" parent="22">
                    <mxGeometry x="50" y="140" width="120" height="60" as="geometry"/>
                </mxCell>
                <mxCell id="40" value="" style="rounded=0;whiteSpace=wrap;html=1;fontFamily=Helvetica;fontSize=11;fontColor=default;labelBackgroundColor=default;" vertex="1" parent="22">
                    <mxGeometry y="25" width="30" height="175" as="geometry"/>
                </mxCell>
                <mxCell id="41" value="chat1" style="rounded=0;whiteSpace=wrap;html=1;fontFamily=Helvetica;fontSize=11;fontColor=default;labelBackgroundColor=default;" vertex="1" parent="22">
                    <mxGeometry y="25" width="30" height="60" as="geometry"/>
                </mxCell>
                <mxCell id="42" value="chat2" style="rounded=0;whiteSpace=wrap;html=1;fontFamily=Helvetica;fontSize=11;fontColor=default;labelBackgroundColor=default;" vertex="1" parent="22">
                    <mxGeometry y="82.5" width="30" height="60" as="geometry"/>
                </mxCell>
                <mxCell id="43" value="..." style="rounded=0;whiteSpace=wrap;html=1;fontFamily=Helvetica;fontSize=11;fontColor=default;labelBackgroundColor=default;" vertex="1" parent="22">
                    <mxGeometry y="142.5" width="30" height="60" as="geometry"/>
                </mxCell>
                <mxCell id="44" value="How can I help you?" style="text;html=1;align=center;verticalAlign=middle;whiteSpace=wrap;rounded=0;fontFamily=Helvetica;fontSize=11;fontColor=default;labelBackgroundColor=default;" vertex="1" parent="22">
                    <mxGeometry x="50" y="70" width="115" height="30" as="geometry"/>
                </mxCell>
                <mxCell id="24" value="/conversation/&amp;lt;conversation_id&amp;gt;" style="swimlane;whiteSpace=wrap;html=1;fontFamily=Helvetica;fontSize=11;fontColor=default;labelBackgroundColor=default;" vertex="1" parent="1">
                    <mxGeometry x="69" y="870" width="195" height="200" as="geometry">
                        <mxRectangle x="49" y="300" width="270" height="30" as="alternateBounds"/>
                    </mxGeometry>
                </mxCell>
                <mxCell id="45" value="&lt;i&gt;How do I...&lt;/i&gt;" style="rounded=1;whiteSpace=wrap;html=1;fontFamily=Helvetica;fontSize=11;fontColor=default;labelBackgroundColor=default;" vertex="1" parent="24">
                    <mxGeometry x="71" y="97.5" width="111" height="30" as="geometry"/>
                </mxCell>
                <mxCell id="46" value="chat1" style="rounded=0;whiteSpace=wrap;html=1;fontFamily=Helvetica;fontSize=11;fontColor=default;labelBackgroundColor=default;" vertex="1" parent="24">
                    <mxGeometry x="1" y="22.5" width="30" height="60" as="geometry"/>
                </mxCell>
                <mxCell id="47" value="chat2" style="rounded=0;whiteSpace=wrap;html=1;fontFamily=Helvetica;fontSize=11;fontColor=default;labelBackgroundColor=default;" vertex="1" parent="24">
                    <mxGeometry x="1" y="80" width="30" height="60" as="geometry"/>
                </mxCell>
                <mxCell id="48" value="..." style="rounded=0;whiteSpace=wrap;html=1;fontFamily=Helvetica;fontSize=11;fontColor=default;labelBackgroundColor=default;" vertex="1" parent="24">
                    <mxGeometry x="1" y="140" width="30" height="60" as="geometry"/>
                </mxCell>
                <mxCell id="49" value="How can I help you?" style="text;html=1;align=center;verticalAlign=middle;whiteSpace=wrap;rounded=0;fontFamily=Helvetica;fontSize=11;fontColor=default;labelBackgroundColor=default;" vertex="1" parent="24">
                    <mxGeometry x="51" y="67.5" width="115" height="30" as="geometry"/>
                </mxCell>
                <mxCell id="50" value="&lt;i&gt;The way you...&lt;/i&gt;" style="rounded=0;whiteSpace=wrap;html=1;fontFamily=Helvetica;fontSize=11;fontColor=default;labelBackgroundColor=default;" vertex="1" parent="24">
                    <mxGeometry x="41" y="127.5" width="102.5" height="32.5" as="geometry"/>
                </mxCell>
                <mxCell id="51" value="&lt;i&gt;Enter message here&lt;/i&gt;" style="rounded=1;whiteSpace=wrap;html=1;fontFamily=Helvetica;fontSize=11;fontColor=default;labelBackgroundColor=default;" vertex="1" parent="24">
                    <mxGeometry x="51" y="170" width="120" height="30" as="geometry"/>
                </mxCell>
                <mxCell id="25" value="/api/generate" style="swimlane;whiteSpace=wrap;html=1;fontFamily=Helvetica;fontSize=11;fontColor=default;labelBackgroundColor=default;" vertex="1" parent="1">
                    <mxGeometry x="600" y="890" width="195" height="200" as="geometry">
                        <mxRectangle x="580" y="320" width="270" height="30" as="alternateBounds"/>
                    </mxGeometry>
                </mxCell>
                <mxCell id="60" value="JSON in, JSON out" style="rounded=0;whiteSpace=wrap;html=1;fontFamily=Helvetica;fontSize=11;fontColor=default;labelBackgroundColor=default;" vertex="1" parent="25">
                    <mxGeometry x="36.25" y="70" width="120" height="60" as="geometry"/>
                </mxCell>
                <mxCell id="27" value="/course/&amp;lt;course_id&amp;gt;/documents" style="swimlane;whiteSpace=wrap;html=1;fontFamily=Helvetica;fontSize=11;fontColor=default;labelBackgroundColor=default;" vertex="1" parent="1">
                    <mxGeometry x="560" y="340" width="195" height="200" as="geometry">
                        <mxRectangle x="580" y="592.5" width="260" height="30" as="alternateBounds"/>
                    </mxGeometry>
                </mxCell>
                <mxCell id="54" value="CS61" style="rounded=0;whiteSpace=wrap;html=1;fontFamily=Helvetica;fontSize=11;fontColor=default;labelBackgroundColor=default;" vertex="1" parent="27">
                    <mxGeometry x="56.25" y="30" width="82.5" height="20" as="geometry"/>
                </mxCell>
                <mxCell id="55" value="Documents&lt;div&gt;file1.txt remove?&lt;/div&gt;&lt;div&gt;file2.pdf remove?&lt;/div&gt;&lt;div&gt;Add file&lt;/div&gt;" style="rounded=0;whiteSpace=wrap;html=1;fontFamily=Helvetica;fontSize=11;fontColor=default;labelBackgroundColor=default;align=left;" vertex="1" parent="27">
                    <mxGeometry x="10" y="80" width="90" height="60" as="geometry"/>
                </mxCell>
                <mxCell id="30" value="" style="endArrow=none;dashed=1;html=1;dashPattern=1 3;strokeWidth=2;rounded=1;strokeColor=default;align=center;verticalAlign=middle;fontFamily=Helvetica;fontSize=11;fontColor=default;labelBackgroundColor=default;edgeStyle=elbowEdgeStyle;elbow=vertical;entryX=1;entryY=0.5;entryDx=0;entryDy=0;exitX=0;exitY=0;exitDx=0;exitDy=0;" edge="1" parent="1" source="25" target="51">
                    <mxGeometry width="50" height="50" relative="1" as="geometry">
                        <mxPoint x="600" y="930" as="sourcePoint"/>
                        <mxPoint x="320" y="1115" as="targetPoint"/>
                        <Array as="points">
                            <mxPoint x="470" y="1010"/>
                        </Array>
                    </mxGeometry>
                </mxCell>
                <mxCell id="31" value="Fetches response via JavaScript" style="text;strokeColor=none;fillColor=none;align=left;verticalAlign=middle;spacingLeft=4;spacingRight=4;overflow=hidden;points=[[0,0.5],[1,0.5]];portConstraint=eastwest;rotatable=0;whiteSpace=wrap;html=1;fontFamily=Helvetica;fontSize=11;fontColor=default;labelBackgroundColor=default;" vertex="1" parent="1">
                    <mxGeometry x="337.5" y="975" width="200" height="30" as="geometry"/>
                </mxCell>
                <mxCell id="52" style="edgeStyle=elbowEdgeStyle;shape=connector;rounded=1;html=1;entryX=0.25;entryY=0;entryDx=0;entryDy=0;strokeColor=default;align=center;verticalAlign=middle;fontFamily=Helvetica;fontSize=11;fontColor=default;labelBackgroundColor=default;endArrow=classic;elbow=vertical;exitX=0;exitY=0.5;exitDx=0;exitDy=0;" edge="1" parent="1" source="42" target="24">
                    <mxGeometry relative="1" as="geometry">
                        <mxPoint x="500" y="800" as="sourcePoint"/>
                        <mxPoint x="177" y="880" as="targetPoint"/>
                        <Array as="points">
                            <mxPoint x="240" y="720"/>
                        </Array>
                    </mxGeometry>
                </mxCell>
                <mxCell id="53" value="User selects previous conversation" style="edgeLabel;html=1;align=center;verticalAlign=middle;resizable=0;points=[];fontFamily=Helvetica;fontSize=11;fontColor=default;labelBackgroundColor=default;" vertex="1" connectable="0" parent="52">
                    <mxGeometry x="0.2003" relative="1" as="geometry">
                        <mxPoint x="83" y="-10" as="offset"/>
                    </mxGeometry>
                </mxCell>
                <mxCell id="57" value="" style="endArrow=none;dashed=1;html=1;dashPattern=1 3;strokeWidth=2;rounded=1;strokeColor=default;align=center;verticalAlign=middle;fontFamily=Helvetica;fontSize=11;fontColor=default;labelBackgroundColor=default;edgeStyle=elbowEdgeStyle;elbow=vertical;entryX=0.5;entryY=1;entryDx=0;entryDy=0;exitX=0;exitY=0;exitDx=0;exitDy=0;" edge="1" parent="1" source="25" target="39">
                    <mxGeometry width="50" height="50" relative="1" as="geometry">
                        <mxPoint x="610" y="930" as="sourcePoint"/>
                        <mxPoint x="250" y="1065" as="targetPoint"/>
                        <Array as="points">
                            <mxPoint x="540" y="840"/>
                        </Array>
                    </mxGeometry>
                </mxCell>
                <mxCell id="58" value="Fetches response via JavaScript" style="text;strokeColor=none;fillColor=none;align=left;verticalAlign=middle;spacingLeft=4;spacingRight=4;overflow=hidden;points=[[0,0.5],[1,0.5]];portConstraint=eastwest;rotatable=0;whiteSpace=wrap;html=1;fontFamily=Helvetica;fontSize=11;fontColor=default;labelBackgroundColor=default;" vertex="1" parent="1">
                    <mxGeometry x="460" y="810" width="200" height="30" as="geometry"/>
                </mxCell>
            </root>
        </mxGraphModel>
    </diagram>
</mxfile>